<svg xmlns="http://www.w3.org/2000/svg" viewBox="0 0 256 256">
 <defs><linearGradient id="tile" x2=".7" y2="1"><stop stop-color="#fff"/><stop offset="1" stop-color="#d7e9ff"/></linearGradient><linearGradient id="blue" x2="1" y2="1"><stop stop-color="#168dff"/><stop offset=".55" stop-color="#0066ff"/><stop offset="1" stop-color="#062887"/></linearGradient><linearGradient id="cyan" x2=".8" y2="1"><stop stop-color="#3ec8ff"/><stop offset="1" stop-color="#1688ff"/></linearGradient></defs>
 <rect x="12" y="12" width="232" height="232" rx="54" fill="url(#tile)"/>
 <path d="M42 112 Q42 91 65 77 L109 51 Q128 39 148 51 L192 77 Q214 91 214 112 L214 154 Q214 174 193 187 L163 205 L128 173 L77 142 L49 173 Q42 162 42 149Z" fill="url(#cyan)"/>
 <path d="M59 81 Q77 65 101 79 L172 121 Q216 98 202 82 L148 51 Q128 39 109 51Z" fill="url(#blue)"/>
 <path d="M49 173 Q43 156 77 142 L128 173 Q143 182 143 199 L167 199 Q176 199 170 207 L137 238 Q128 246 120 238 L87 207 Q81 199 90 199 L105 199Z" fill="url(#blue)"/>
 <path d="M77 142 L123 115 L172 144 L128 173Z" fill="url(#tile)"/>
 <path d="M59 81 Q77 65 101 79" fill="none" stroke="#62d2ff" stroke-width="2"/>
</svg>
